<svg xmlns="http://www.w3.org/2000/svg" viewBox="0 0 139 250" width="139" height="250">
	<style>
		tspan { white-space:pre }
		.shp0 { fill: #000000 } 
		.shp1 { fill: #ffef3c } 
		.shp2 { fill: #00bdef } 
		.shp3 { fill: #ee378b } 
	</style>
	<g >
		<path class="shp0" d="M66.88 0.41C66.34 0.47 64.6 0.74 63.02 1.01C61.45 1.29 59.04 1.89 57.67 2.34C56.3 2.8 54 3.76 52.56 4.47C51.12 5.19 48.94 6.46 47.7 7.3C46.47 8.14 44.28 10 42.83 11.43C41.38 12.87 39.62 14.82 38.91 15.78C38.21 16.74 37.1 18.41 36.45 19.51C35.8 20.6 34.91 22.33 34.47 23.36C34.02 24.38 31.12 32.6 28.01 41.63C24.91 50.65 21.66 60.1 20.8 62.62C19.94 65.15 16.69 74.6 13.58 83.62C10.48 92.64 6.41 104.44 4.56 109.84C2.7 115.24 1.03 120.3 0.84 121.09C0.65 121.87 0.44 123.27 0.36 124.19C0.26 125.36 0.37 126.59 0.7 128.23C1 129.7 7.29 148.33 17.43 177.81C28.42 209.77 34.09 225.91 34.97 227.76C35.69 229.26 36.91 231.44 37.69 232.6C38.46 233.77 39.8 235.53 40.66 236.51C41.52 237.5 43.06 239.05 44.09 239.95C45.12 240.85 46.91 242.24 48.08 243.03C49.24 243.82 51.26 245 52.56 245.65C53.86 246.3 56.05 247.2 57.42 247.66C58.79 248.11 61.03 248.71 62.4 248.98C63.77 249.26 66.29 249.56 68.01 249.65C70.24 249.76 71.97 249.7 74.11 249.41C75.75 249.2 78.22 248.73 79.59 248.38C80.96 248.02 83.26 247.24 84.7 246.63C86.13 246.02 88.18 244.99 89.24 244.34C90.3 243.7 91.87 242.66 92.73 242.05C93.58 241.44 95.52 239.71 97.03 238.2C98.77 236.46 100.37 234.55 101.42 232.98C102.33 231.61 103.55 229.54 104.13 228.38C104.71 227.22 105.35 225.82 105.55 225.27C105.75 224.73 113.09 203.42 121.87 177.93C130.64 152.44 138.04 130.8 138.29 129.85C138.55 128.89 138.82 127.27 138.91 126.24C138.99 125.18 138.93 123.52 138.75 122.39C138.53 120.96 134.79 109.77 125.5 82.75C118.38 62.05 110.98 40.52 109.06 34.92C107.14 29.31 105.1 23.72 104.52 22.49C103.95 21.26 102.82 19.25 102.02 18.02C101.22 16.79 99.77 14.85 98.8 13.7C97.82 12.56 96.02 10.78 94.78 9.74C93.55 8.71 91.65 7.28 90.55 6.57C89.45 5.86 87.88 4.94 87.06 4.53C86.24 4.12 84.5 3.39 83.2 2.9C81.9 2.42 80.16 1.84 79.34 1.63C78.52 1.41 76.84 1.06 75.6 0.85C74.37 0.64 72.13 0.43 70.62 0.39C69.11 0.34 67.43 0.35 66.88 0.41Z" />
		<path class="shp1" d="M65.14 6.95C64.32 7.07 62.69 7.41 61.53 7.7C60.36 8 58.46 8.63 57.29 9.11C56.13 9.59 54.29 10.51 53.22 11.14C52.14 11.78 50.35 13.03 49.23 13.93C48.12 14.83 46.31 16.62 45.21 17.92C44.12 19.22 42.74 21.06 42.16 22.01C41.58 22.96 40.72 24.63 40.25 25.72C39.77 26.81 32.15 48.73 23.32 74.43C14.48 100.12 7.12 121.76 6.95 122.51C6.79 123.29 6.72 124.74 6.79 125.87C6.91 127.69 8.28 131.81 23.26 175.45C35.28 210.43 39.95 223.73 40.9 225.65C41.61 227.08 43 229.32 43.98 230.62C44.96 231.91 46.48 233.64 47.36 234.45C48.23 235.26 49.62 236.42 50.44 237.02C51.27 237.63 52.67 238.55 53.56 239.07C54.45 239.59 56.13 240.41 57.29 240.89C58.46 241.37 60.64 242.08 62.15 242.46C64.65 243.09 65.3 243.15 69.5 243.16C72.43 243.16 74.65 243.04 75.6 242.83C76.43 242.65 77.88 242.28 78.84 242C79.8 241.72 81.54 241.09 82.7 240.59C83.87 240.09 86 238.91 87.44 237.96C89.08 236.88 90.94 235.35 92.42 233.86C93.73 232.56 95.43 230.54 96.2 229.37C96.98 228.21 98.07 226.31 98.62 225.15C99.18 223.99 106.76 202.29 115.48 176.94C124.19 151.58 131.59 130 131.92 128.98C132.26 127.95 132.54 126.78 132.54 126.37C132.54 125.96 132.33 125.34 132.06 125L131.57 124.38L113.47 124.23C113.6 120.49 113.53 118.96 113.4 118.41C113.2 117.58 113.24 117.32 113.64 116.8C113.9 116.46 114.11 115.9 114.1 115.56C114.1 115.21 113.96 114.79 113.78 114.62C113.61 114.45 113.1 114.31 112.66 114.31C111.92 114.31 111.6 114.62 109.13 117.61C107.64 119.42 105.93 121.37 105.33 121.94C104.74 122.52 103.69 123.24 103 123.55C101.88 124.06 101.26 124.13 96.71 124.25C93.94 124.32 91.67 124.32 91.68 124.25C91.68 124.19 92.2 123.52 92.83 122.76C93.47 122.01 95.03 120.08 96.31 118.48L98.65 115.56C106.5 115.57 107.04 115.52 107.42 115.13C107.66 114.89 107.86 114.46 107.86 114.19C107.87 113.92 107.68 113.5 107.43 113.26C107.06 112.91 106.48 112.83 103.94 112.83L100.89 112.82C101.47 111.86 101.58 111.36 101.51 111.08C101.44 110.81 101.13 110.46 100.82 110.31C100.52 110.16 99.98 110.1 99.64 110.17C99.28 110.26 98.63 110.84 98.08 111.57L97.15 112.82C90.01 112.82 89.63 112.87 89.18 113.32C88.91 113.59 88.68 113.98 88.68 114.19C88.68 114.39 88.91 114.79 89.18 115.06C89.61 115.49 90.01 115.56 92.29 115.56L94.91 115.56C92.5 118.73 91.01 120.45 90.05 121.42C88.72 122.77 87.97 123.31 86.88 123.72C85.91 124.08 84.88 124.25 83.7 124.25C82.7 124.25 81.96 124.15 81.96 124.01C81.96 123.87 82.24 123.23 82.58 122.58C82.98 121.84 83.21 121 83.21 120.34C83.2 119.6 83.03 119.08 82.62 118.6C82.3 118.23 81.68 117.78 81.25 117.61L80.46 117.3C82.81 114.31 83.79 113.02 84.15 112.5C84.74 111.67 84.78 111.49 84.51 110.95C84.34 110.61 83.94 110.27 83.64 110.18C83.33 110.1 82.88 110.1 82.64 110.18C82.4 110.27 81.34 111.43 80.28 112.76C79.23 114.09 77.29 116.51 75.99 118.14C74.68 119.76 73.05 121.59 72.36 122.19C71.58 122.88 70.57 123.47 69.62 123.78C68.8 124.05 67.65 124.24 67.06 124.2L66 124.13C68.71 120.86 69.51 119.68 69.51 119.41C69.51 119.14 69.32 118.72 69.07 118.48C68.83 118.25 68.34 118.05 67.99 118.05C67.64 118.04 67.25 118.16 67.12 118.31C66.96 118.49 66.57 118.37 65.89 117.92C65.19 117.47 64.56 117.28 63.77 117.29C63.05 117.29 62.15 117.54 61.28 117.97C60.48 118.37 58.92 119.6 57.54 120.91C55.53 122.83 54.94 123.24 53.56 123.71C52.22 124.16 51.38 124.26 48.7 124.26L45.46 124.27C48.63 121.08 49.57 119.99 49.59 119.78C49.61 119.58 49.61 119.24 49.58 119.04C49.56 118.83 49.35 118.52 49.12 118.35C48.89 118.17 48.42 118.03 48.08 118.03C47.61 118.02 46.89 118.61 45.21 120.37C43.53 122.14 42.6 122.9 41.48 123.43L39.98 124.13C26.76 124.32 22.92 124.35 22.92 124.32C22.92 124.28 25.36 121.32 28.35 117.73C31.33 114.14 34.3 110.56 34.95 109.78C35.59 108.99 36.12 108.18 36.12 107.98C36.12 107.77 35.9 107.38 35.62 107.11C35.35 106.83 34.84 106.61 34.5 106.61C34.02 106.61 33.38 107.19 31.7 109.16C30.5 110.56 27.44 114.2 24.91 117.25C22.38 120.29 20.15 123.14 19.96 123.58C19.66 124.29 19.67 124.49 20.09 125.37C20.38 126.01 20.86 126.52 21.42 126.8C22.19 127.19 23.15 127.24 29.71 127.24C33.81 127.24 37.98 127.11 39.05 126.96C40.11 126.81 41.4 126.53 41.91 126.34C42.78 126.02 42.9 126.03 43.62 126.55C44.34 127.08 44.62 127.11 48.54 127.1C52.38 127.08 52.83 127.03 54.55 126.42C56.41 125.76 56.42 125.76 56.92 126.25C57.19 126.52 57.89 126.88 58.46 127.05L59.5 127.36C56.53 130.98 54.63 133.27 53.36 134.79C51.42 137.1 51.05 137.67 51.12 138.29C51.17 138.79 51.39 139.12 51.81 139.32C52.16 139.48 52.66 139.54 52.93 139.46C53.21 139.38 55.76 136.51 58.6 133.09L63.78 126.86C65.61 127.16 66.64 127.18 67.26 127.1C67.87 127.02 68.94 126.84 69.62 126.69C70.31 126.54 71.51 126.1 72.3 125.71C73.19 125.27 74.49 124.25 75.73 123.01C76.82 121.92 78.17 120.8 78.72 120.53C79.26 120.25 79.83 120.03 79.96 120.03C80.1 120.03 80.21 120.2 80.21 120.4C80.21 120.61 79.91 121.36 79.55 122.08C79.02 123.12 78.92 123.59 79.05 124.38C79.14 124.98 79.48 125.65 79.89 126.07C80.27 126.45 81.03 126.88 81.58 127.03C82.14 127.18 83.31 127.23 84.26 127.14C85.18 127.06 86.64 126.76 87.5 126.48L89.05 125.98C90.18 127.08 90.44 127.12 94.12 127.19C96.27 127.24 99.06 127.15 100.33 127.01C101.59 126.86 103.25 126.52 104 126.24L105.37 125.75C106.66 126.68 107.37 126.89 108.32 126.96C109.1 127.01 110.12 126.92 110.6 126.77C111.31 126.53 111.65 126.55 112.41 126.86C113.18 127.17 114.75 127.24 121.31 127.24L129.28 127.24C129.04 128.1 121.76 149.38 112.93 175.07C104.11 200.77 96.44 222.74 95.88 223.91C95.32 225.07 94.34 226.8 93.7 227.75C93.06 228.71 91.59 230.45 90.42 231.62C89.26 232.79 87.58 234.27 86.69 234.9C85.8 235.53 84.12 236.53 82.95 237.13C81.79 237.73 79.88 238.52 78.72 238.88C77.55 239.25 75.59 239.73 74.36 239.96C72.65 240.27 71.29 240.34 68.63 240.23C66.1 240.13 64.49 239.93 62.77 239.49C61.47 239.15 59.62 238.57 58.66 238.19C57.7 237.82 56.14 237.05 55.18 236.5C54.22 235.95 52.82 235.05 52.06 234.51C51.31 233.96 49.9 232.72 48.94 231.75C47.98 230.79 46.59 229.16 45.87 228.13C45.14 227.11 44.12 225.43 43.6 224.4C43.05 223.33 35.68 202.26 26.29 174.95C14.58 140.88 9.89 126.94 9.79 125.87C9.71 125.05 9.77 123.82 9.91 123.14C10.06 122.45 17.48 100.65 26.41 74.68C35.34 48.71 42.99 26.79 43.4 25.97C43.81 25.15 44.78 23.53 45.55 22.37C46.32 21.2 47.85 19.36 48.95 18.27C50.05 17.17 51.79 15.7 52.81 15C53.84 14.29 55.74 13.2 57.04 12.58C58.35 11.96 60.36 11.17 61.53 10.84C62.69 10.51 64.65 10.1 65.89 9.93C67.22 9.75 69.3 9.68 70.99 9.77C72.57 9.84 74.64 10.07 75.6 10.28C76.56 10.49 78.08 10.9 78.97 11.2C79.86 11.49 81.37 12.11 82.33 12.56C83.29 13.02 84.97 13.98 86.07 14.71C87.16 15.43 89.01 16.97 90.18 18.14C91.35 19.3 92.88 21.09 93.58 22.12C94.29 23.14 95.32 24.93 95.88 26.09C96.43 27.26 103.33 46.94 111.2 69.83C119.06 92.72 126.14 113.3 126.92 115.56C127.69 117.81 128.52 119.86 128.75 120.1C128.97 120.34 129.38 120.54 129.66 120.54C129.93 120.54 130.37 120.39 130.62 120.22C130.91 120.03 131.09 119.61 131.09 119.16C131.09 118.75 124.01 97.84 115.36 72.69C106.71 47.54 99.18 26.01 98.62 24.85C98.07 23.69 96.98 21.79 96.2 20.63C95.43 19.46 93.73 17.44 92.42 16.14C90.94 14.65 89.08 13.12 87.44 12.04C86 11.09 83.81 9.88 82.58 9.35C81.34 8.82 79.05 8.06 77.47 7.66C75.02 7.03 74.03 6.91 70.62 6.83C68.43 6.78 65.96 6.83 65.14 6.95Z" />
		<path fill-rule="evenodd" class="shp2" d="M68.92 47.44C69.29 47.52 69.72 47.81 69.9 48.09C70.07 48.36 72.85 61.19 76.08 76.6C79.31 92.01 81.96 104.68 81.96 104.75C81.96 104.81 82.18 104.87 82.45 104.87C82.73 104.87 83 104.79 83.06 104.68C83.12 104.58 83.52 102.82 83.94 100.77C84.37 98.72 84.92 96.04 85.18 94.81C85.43 93.58 86.05 90.67 86.55 88.34C87.05 86.02 87.91 82 88.46 79.4C89 76.8 89.67 73.61 89.94 72.32C90.21 71.02 90.66 68.95 90.92 67.72C91.19 66.49 91.97 62.85 92.65 59.64C93.32 56.43 94.14 52.58 94.46 51.08C94.77 49.58 95.2 48.16 95.41 47.92C95.61 47.69 95.95 47.47 96.15 47.45C96.36 47.43 96.78 47.42 97.09 47.44C97.4 47.45 97.82 47.72 98.04 48.02C98.39 48.54 98.35 48.93 97.52 53.06C97.03 55.52 94.33 68.41 91.53 81.7C88.73 94.99 86.28 106.12 86.09 106.42C85.9 106.73 85.31 107.2 84.78 107.46C84.19 107.76 83.31 107.94 82.45 107.93C81.7 107.93 80.75 107.76 80.34 107.55C79.92 107.34 79.38 106.85 79.12 106.46C78.81 106 77.94 102.45 76.71 96.67C75.64 91.68 72.96 78.93 70.74 68.34C67.3 51.88 66.76 48.99 67.01 48.46C67.18 48.13 67.52 47.72 67.79 47.57C68.05 47.41 68.56 47.36 68.92 47.44ZM74.95 47.47C75.31 47.55 75.73 47.89 75.89 48.23C76.05 48.56 77.54 55.65 79.2 63.99C80.86 72.33 82.32 79.37 82.43 79.65C82.59 80.04 82.7 79.82 82.92 78.65C83.07 77.83 83.54 75.54 83.95 73.56C84.36 71.58 85.65 65.2 86.81 59.39C87.98 53.58 89.04 48.58 89.18 48.27C89.32 47.97 89.68 47.62 89.99 47.5C90.3 47.38 90.83 47.36 91.17 47.46C91.51 47.55 91.95 47.9 92.13 48.23C92.43 48.77 91.94 51.31 87.58 72.07C84.89 84.85 82.65 95.42 82.6 95.55C82.55 95.69 82.45 95.63 82.38 95.43C82.31 95.22 80.11 84.82 77.5 72.32C74.88 59.81 72.74 49.3 72.74 48.96C72.73 48.61 72.87 48.15 73.05 47.92C73.22 47.69 73.57 47.46 73.83 47.41C74.08 47.36 74.59 47.39 74.95 47.47ZM43.94 47.46C44.42 47.45 44.91 47.65 45.21 47.98C45.7 48.5 45.71 48.9 45.84 104.13L55.49 104.13C65.13 104.14 65.14 104.14 65.71 104.69C66.03 105.01 66.27 105.54 66.27 105.93C66.26 106.38 66.03 106.78 65.58 107.12C64.91 107.61 64.57 107.62 43.59 107.6L42.22 106.4L42.22 77.46C42.22 49.38 42.24 48.5 42.7 47.99C42.98 47.68 43.48 47.46 43.94 47.46ZM49.67 47.46C50.15 47.45 50.63 47.65 50.94 47.98C51.43 48.5 51.44 48.9 51.58 98.29L58.57 98.41C65.19 98.53 65.57 98.56 65.91 99.03C66.11 99.3 66.27 99.78 66.27 100.09C66.26 100.39 66.04 100.87 65.76 101.14C65.49 101.42 65.01 101.7 64.7 101.77C64.4 101.84 60.52 101.87 48.05 101.76L48.03 75.06C48 49.64 48.02 48.34 48.45 47.91C48.7 47.67 49.25 47.46 49.67 47.46Z" />
		<path class="shp1" d="M49.96 115.25C49.67 115.54 49.58 115.9 49.68 116.36C49.76 116.75 50.09 117.18 50.44 117.36C50.94 117.61 51.19 117.61 51.69 117.36C52.04 117.18 52.37 116.75 52.46 116.36C52.56 115.89 52.46 115.55 52.15 115.24C51.89 114.99 51.4 114.8 51.04 114.8C50.68 114.81 50.2 115.01 49.96 115.25Z" />
		<path class="shp0" d="M61.8 121.04C60.95 121.6 59.98 122.42 59.65 122.85C59.32 123.28 59.05 123.77 59.04 123.94C59.04 124.11 59.15 124.31 59.29 124.38C59.42 124.45 60.11 124.2 60.81 123.82C61.51 123.44 62.58 122.6 63.18 121.96C63.78 121.31 64.23 120.64 64.19 120.46C64.14 120.29 63.94 120.12 63.73 120.08C63.53 120.04 62.66 120.47 61.8 121.04ZM108.95 122.29C107.67 123.93 107.64 124.01 108.17 124.15C108.48 124.23 108.95 124.26 109.21 124.21C109.47 124.17 109.89 123.85 110.15 123.51C110.53 123.01 110.59 122.66 110.46 121.73L110.3 120.57L108.95 122.29Z" />
		<path fill-rule="evenodd" class="shp2" d="M84.76 136.7C85.68 136.69 87.22 136.85 88.18 137.05C89.14 137.26 90.74 137.8 91.73 138.26C92.73 138.71 94.1 139.59 94.78 140.21C95.47 140.82 96.39 141.99 96.82 142.79C97.26 143.6 97.79 144.93 98.01 145.75C98.22 146.57 98.4 148.14 98.41 149.23C98.41 150.85 98.32 151.35 97.91 151.9C97.54 152.4 97.18 152.59 96.59 152.59C96.13 152.6 95.59 152.41 95.35 152.16C95.01 151.81 94.91 151.18 94.85 149.09C94.79 146.73 94.71 146.31 94.04 145C93.57 144.09 92.83 143.16 92.04 142.52C91.36 141.96 90.13 141.24 89.3 140.91C88.29 140.52 87.09 140.29 85.57 140.21C83.77 140.11 82.98 140.19 81.58 140.6C80.47 140.93 79.27 141.53 78.28 142.25C77.03 143.17 76.58 143.7 75.22 146.5L75.29 167.74C75.35 188.84 75.36 189 75.88 189.99C76.17 190.53 76.79 191.36 77.25 191.83C77.71 192.29 78.51 192.93 79.03 193.25C79.54 193.57 80.66 194.07 81.52 194.36C82.81 194.8 83.5 194.87 85.57 194.78C87.76 194.69 88.28 194.57 89.9 193.82C91.13 193.25 92.09 192.58 92.82 191.79C93.42 191.14 94.09 190.19 94.31 189.67C94.56 189.09 94.76 187.69 94.84 185.88C94.92 184.31 95.1 182.87 95.25 182.68C95.41 182.49 95.76 182.26 96.03 182.16C96.3 182.06 96.84 182.07 97.21 182.19C97.61 182.32 97.96 182.64 98.04 182.96C98.12 183.27 98.14 184.98 98.09 186.75C98.01 189.85 97.97 190.05 97.17 191.6C96.7 192.49 95.7 193.84 94.93 194.61C94.17 195.37 92.92 196.31 92.17 196.69C91.41 197.07 89.96 197.59 88.93 197.85C87.87 198.11 86.2 198.32 85.07 198.32C83.94 198.32 82.27 198.11 81.21 197.85C80.18 197.59 78.72 197.07 77.97 196.69C77.22 196.31 75.95 195.37 75.15 194.61C74.35 193.84 73.44 192.77 73.12 192.22C72.8 191.67 72.36 190.61 72.14 189.86C71.78 188.64 71.74 186.18 71.87 145.5L72.7 143.76C73.26 142.6 74.04 141.52 75.07 140.51C76.08 139.52 77.2 138.72 78.34 138.18C79.3 137.73 80.76 137.21 81.58 137.04C82.4 136.86 83.83 136.71 84.76 136.7ZM49.32 137.43L49.32 138.42C49.32 139.12 49.51 139.64 50.57 140.9L45.84 140.9L45.84 168.68C45.85 196.22 45.85 196.45 45.35 197.13C44.97 197.63 44.63 197.81 44.03 197.81C43.58 197.8 43.02 197.61 42.78 197.37C42.35 196.97 42.33 195.4 42.25 138.58L42.84 138C43.39 137.46 43.63 137.43 49.32 137.43ZM57.09 137.43L61.18 137.43C64.93 137.43 65.31 137.47 65.76 137.92C66.04 138.2 66.26 138.7 66.26 139.04C66.26 139.38 65.99 139.94 65.04 140.9L59.67 140.9C56.26 140.9 54.3 140.81 54.3 140.66C54.3 140.52 54.39 140.41 54.49 140.41C54.59 140.41 55.22 139.74 55.88 138.92L57.09 137.43ZM85.44 142.48C86.89 142.53 87.92 142.71 88.68 143.05C89.3 143.33 90.24 143.93 90.78 144.4C91.31 144.87 91.95 145.7 92.2 146.25C92.51 146.93 92.66 147.86 92.67 149.23C92.68 150.85 92.59 151.34 92.18 151.9C91.81 152.4 91.45 152.59 90.86 152.59C90.4 152.6 89.86 152.41 89.62 152.16C89.31 151.85 89.14 151.15 89.04 149.85C88.96 148.83 88.85 147.74 88.79 147.43C88.72 147.06 88.31 146.7 87.62 146.38C86.93 146.06 86.03 145.88 85.01 145.88C84.15 145.88 83.14 145.99 82.76 146.14C82.39 146.29 81.82 146.65 80.95 147.49L80.95 167.43C80.96 187.04 80.97 187.38 81.46 187.87C81.73 188.15 82.38 188.54 82.89 188.75C83.4 188.96 84.44 189.12 85.19 189.12C86.01 189.11 86.99 188.91 87.62 188.61C88.2 188.34 88.79 187.9 88.93 187.62C89.07 187.35 89.18 186.2 89.17 185.08C89.16 183.44 89.25 182.94 89.61 182.58C89.85 182.33 90.39 182.13 90.8 182.13C91.21 182.13 91.75 182.33 91.99 182.58C92.36 182.95 92.43 183.46 92.43 185.7C92.42 187.44 92.3 188.61 92.08 189.05C91.89 189.43 91.25 190.16 90.65 190.68C89.91 191.32 88.98 191.8 87.81 192.15C86.44 192.55 85.66 192.64 84.2 192.53C82.74 192.42 81.98 192.21 80.72 191.56C79.61 190.99 78.88 190.4 77.6 188.58L77.6 146.41L78.4 145.34C78.85 144.75 79.63 144.01 80.15 143.7C80.66 143.39 81.59 142.97 82.2 142.77C82.94 142.53 84.05 142.43 85.44 142.48ZM48.08 143.14L56.48 143.13C64.56 143.12 64.92 143.14 65.58 143.63C66.04 143.97 66.26 144.36 66.26 144.82C66.25 145.19 66 145.76 65.7 146.07C65.14 146.63 65.09 146.63 51.56 146.62L51.56 160.54L58.35 160.53C64.82 160.53 65.17 160.55 65.7 161.03C66.01 161.3 66.27 161.78 66.27 162.09C66.28 162.4 66.05 162.96 65.27 164.02L48.08 164.02L48.08 143.14ZM48.08 166.25L56.48 166.24C64.56 166.24 64.92 166.26 65.58 166.74C66.03 167.08 66.26 167.48 66.27 167.93C66.27 168.31 66.05 168.86 65.77 169.17C65.27 169.73 65.2 169.73 51.56 169.73L51.5 183.25C51.44 196.38 51.43 196.78 50.94 197.3C50.64 197.62 50.15 197.82 49.7 197.81C49.29 197.81 48.75 197.61 48.5 197.37C48.09 196.97 48.06 196 48.07 181.6L48.08 166.25Z" />
		<path class="shp3" d="M68.91 199.74C68.85 199.84 68.44 201.38 68 203.16C67.57 204.93 66.9 207.06 66.53 207.88C66.11 208.79 65.39 209.78 64.68 210.42C64.04 211.01 63.05 211.72 62.46 212.01C61.88 212.3 60.87 212.7 60.22 212.88C59.29 213.15 59.01 213.35 58.91 213.84C58.84 214.18 58.93 214.63 59.1 214.84C59.27 215.04 59.8 215.28 60.28 215.36C60.76 215.44 61.77 215.82 62.53 216.2C63.28 216.58 64.4 217.41 65.02 218.04C65.73 218.78 66.38 219.8 66.81 220.87C67.18 221.79 67.71 223.6 68 224.9C68.29 226.2 68.66 227.54 68.83 227.88C69 228.22 69.36 228.54 69.63 228.58C69.9 228.63 70.25 228.52 70.4 228.34C70.56 228.15 71.04 226.55 71.48 224.78C71.92 223 72.61 220.85 73.01 219.99C73.49 218.97 74.1 218.15 74.79 217.59C75.38 217.12 76.41 216.46 77.1 216.12C77.78 215.78 78.78 215.41 79.32 215.29C79.94 215.16 80.39 214.89 80.56 214.53C80.78 214.08 80.74 213.88 80.34 213.47C80.06 213.19 79.5 212.9 79.09 212.82C78.68 212.74 77.68 212.32 76.87 211.89C76.06 211.46 74.89 210.54 74.26 209.85C73.42 208.93 72.93 208.07 72.43 206.62C72.05 205.54 71.51 203.58 71.22 202.29C70.94 200.99 70.66 199.84 70.6 199.74C70.54 199.64 70.17 199.55 69.76 199.55C69.36 199.55 68.98 199.64 68.91 199.74Z" />
		<path class="shp0" d="M69.14 209.43C68.83 210.2 68.05 211.24 66.9 212.38L65.14 214.15C67.2 215.84 68.12 216.83 68.51 217.45C68.9 218.06 69.28 218.87 69.36 219.25C69.44 219.62 69.61 219.93 69.75 219.93C69.89 219.93 69.99 219.73 69.99 219.5C69.98 219.26 70.46 218.34 71.05 217.46C71.64 216.58 72.62 215.47 73.24 215L74.36 214.15C71.54 211.46 70.98 210.7 70.58 209.66C70.28 208.88 69.94 208.25 69.82 208.25C69.7 208.25 69.39 208.78 69.14 209.43Z" />
	</g>
</svg>